<svg width="640" height="640" viewBox="0 0 512 512" fill="none" xmlns="http://www.w3.org/2000/svg">
  <defs>
    <linearGradient id="docBody" x1="256" y1="46" x2="256" y2="466" gradientUnits="userSpaceOnUse">
      <stop offset="0" stop-color="#34343a"></stop>
      <stop offset="0.16" stop-color="#202024"></stop>
      <stop offset="0.55" stop-color="#121214"></stop>
      <stop offset="1" stop-color="#050506"></stop>
    </linearGradient>
    <radialGradient id="docSheen" cx="0.5" cy="0.08" r="0.9" gradientUnits="objectBoundingBox">
      <stop offset="0" stop-color="#62626a" stop-opacity="0.85"></stop>
      <stop offset="0.45" stop-color="#2a2a2e" stop-opacity="0.22"></stop>
      <stop offset="1" stop-color="#000000" stop-opacity="0"></stop>
    </radialGradient>
    <linearGradient id="docRim" x1="80" y1="80" x2="440" y2="440" gradientUnits="userSpaceOnUse">
      <stop offset="0" stop-color="#FDE9B8"></stop>
      <stop offset="0.2" stop-color="#FFC04A"></stop>
      <stop offset="0.42" stop-color="#F59410"></stop>
      <stop offset="0.6" stop-color="#B45309"></stop>
      <stop offset="0.78" stop-color="#FFB347"></stop>
      <stop offset="1" stop-color="#FFE08A"></stop>
    </linearGradient>
    <linearGradient id="docGlyph" x1="0" y1="0" x2="0" y2="1">
      <stop offset="0" stop-color="#FFD27A"></stop>
      <stop offset="0.5" stop-color="#F59E0B"></stop>
      <stop offset="1" stop-color="#B86908"></stop>
    </linearGradient>
  </defs>

  
  <rect x="56" y="46" width="400" height="400" rx="104" fill="url(#docBody)"></rect>
  <rect x="56" y="46" width="400" height="400" rx="104" fill="url(#docSheen)"></rect>

  
  <rect x="58.5" y="48.5" width="395" height="395" rx="101.5" fill="none" stroke="url(#docRim)" stroke-width="3" opacity="0.95"></rect>
  <rect x="62" y="52" width="388" height="388" rx="98" fill="none" stroke="#000000" stroke-width="2" opacity="0.5"></rect>

  
  <g transform="translate(256,256) scale(12.4) translate(-12,-12)" fill="none" stroke-linecap="round" stroke-linejoin="round">
    <g stroke="#000000" stroke-opacity="0.4" stroke-width="2.2" transform="translate(0,0.28)">
      <path d="M15 2H6a2 2 0 0 0-2 2v16a2 2 0 0 0 2 2h12a2 2 0 0 0 2-2V7z"></path>
      <path d="M14 2v5h5"></path>
      <line x1="7.5" y1="11" x2="12" y2="11"></line>
      <line x1="7.5" y1="14.5" x2="16.5" y2="14.5"></line>
      <line x1="7.5" y1="18" x2="16.5" y2="18"></line>
    </g>
    <g stroke="url(#docGlyph)" stroke-width="1.8">
      <path d="M15 2H6a2 2 0 0 0-2 2v16a2 2 0 0 0 2 2h12a2 2 0 0 0 2-2V7z"></path>
      <path d="M14 2v5h5"></path>
    </g>
    <g stroke="#F2A012" stroke-width="1.8">
      <line x1="7.5" y1="11" x2="12" y2="11"></line>
      <line x1="7.5" y1="14.5" x2="16.5" y2="14.5"></line>
      <line x1="7.5" y1="18" x2="16.5" y2="18"></line>
    </g>
  </g>
</svg>