<svg width="640" height="640" viewBox="0 0 512 512" fill="none" xmlns="http://www.w3.org/2000/svg">
  <defs>
    <linearGradient id="lkBody" x1="256" y1="46" x2="256" y2="466" gradientUnits="userSpaceOnUse">
      <stop offset="0" stop-color="#34343a"></stop>
      <stop offset="0.16" stop-color="#202024"></stop>
      <stop offset="0.55" stop-color="#121214"></stop>
      <stop offset="1" stop-color="#050506"></stop>
    </linearGradient>
    <radialGradient id="lkSheen" cx="0.5" cy="0.08" r="0.9" gradientUnits="objectBoundingBox">
      <stop offset="0" stop-color="#62626a" stop-opacity="0.85"></stop>
      <stop offset="0.45" stop-color="#2a2a2e" stop-opacity="0.22"></stop>
      <stop offset="1" stop-color="#000000" stop-opacity="0"></stop>
    </radialGradient>
    <linearGradient id="lkRim" x1="80" y1="80" x2="440" y2="440" gradientUnits="userSpaceOnUse">
      <stop offset="0" stop-color="#FDE9B8"></stop>
      <stop offset="0.2" stop-color="#FFC04A"></stop>
      <stop offset="0.42" stop-color="#F59410"></stop>
      <stop offset="0.6" stop-color="#B45309"></stop>
      <stop offset="0.78" stop-color="#FFB347"></stop>
      <stop offset="1" stop-color="#FFE08A"></stop>
    </linearGradient>

    
    <linearGradient id="lkFace" x1="0" y1="0" x2="0" y2="1">
      <stop offset="0" stop-color="#3a3a42"></stop>
      <stop offset="0.5" stop-color="#1e1e22"></stop>
      <stop offset="1" stop-color="#0a0a0c"></stop>
    </linearGradient>
    <linearGradient id="lkRimLocal" x1="0" y1="0" x2="1" y2="1">
      <stop offset="0" stop-color="#FDE9B8"></stop>
      <stop offset="0.2" stop-color="#FFC04A"></stop>
      <stop offset="0.42" stop-color="#F59410"></stop>
      <stop offset="0.6" stop-color="#B45309"></stop>
      <stop offset="0.78" stop-color="#FFB347"></stop>
      <stop offset="1" stop-color="#FFE08A"></stop>
    </linearGradient>

    <radialGradient id="lkHalo" cx="0.5" cy="0.5" r="0.5" gradientUnits="objectBoundingBox">
      <stop offset="0" stop-color="#FFB347" stop-opacity="0.5"></stop>
      <stop offset="0.55" stop-color="#F59410" stop-opacity="0.12"></stop>
      <stop offset="1" stop-color="#F59410" stop-opacity="0"></stop>
    </radialGradient>

    <clipPath id="lkBodyClip">
      <rect x="56" y="46" width="400" height="400" rx="104"></rect>
    </clipPath>
  </defs>

  
  <rect x="56" y="46" width="400" height="400" rx="104" fill="url(#lkBody)"></rect>
  <rect x="56" y="46" width="400" height="400" rx="104" fill="url(#lkSheen)"></rect>

  
  <g clip-path="url(#lkBodyClip)">
  </g>

  
  <rect x="58.5" y="48.5" width="395" height="395" rx="101.5" fill="none" stroke="url(#lkRim)" stroke-width="3" opacity="0.95"></rect>
  <rect x="62" y="52" width="388" height="388" rx="98" fill="none" stroke="#000000" stroke-width="2" opacity="0.5"></rect>

  
  <g transform="translate(256,246) scale(12.2) translate(-12,-12)" stroke-linecap="round" stroke-linejoin="round">
    
    <path d="M7 11V7a5 5 0 0 1 10 0v4" fill="none" stroke="#000000" stroke-opacity="0.4" stroke-width="1.5" transform="translate(0,0.3)"></path>
    
    <path d="M7 11V7a5 5 0 0 1 10 0v4" fill="none" stroke="url(#lkRimLocal)" stroke-width="1.2"></path>
    
    <rect x="3" y="11" width="18" height="11" rx="2" fill="#000000" fill-opacity="0.4" transform="translate(0,0.3)"></rect>
    
    <rect x="3" y="11" width="18" height="11" rx="2" fill="url(#lkFace)" stroke="url(#lkRimLocal)" stroke-width="1.2"></rect>
    
    <path d="M7.4 7a4.6 4.6 0 0 1 9.2 0" fill="none" stroke="#FFE0A0" stroke-width="0.7" stroke-opacity="0.7"></path>
  </g>
</svg>